{"title":"Sapna Jahan - Full Promo Song - Brothers - 720p HEVC - truHD HEV","uid":12259291,"size":10899759,"categoryP":"video","categoryS":"music_videos","magnet":"?xt=urn:btih:f69a1c0a82991da0333695ebe0692d0bad2c43e9&amp;dn=Sapna+Jahan+-+Full+Promo+Song+-+Brothers+-+720p+HEVC+-+truHD+HEV&amp;tr=udp%3A%2F%2Ftracker.openbittorrent.com%3A80&amp;tr=udp%3A%2F%2Fopen.demonii.com%3A1337&amp;tr=udp%3A%2F%2Ftracker.coppersurfer.tk%3A6969&amp;tr=udp%3A%2F%2Fexodus.desync.com%3A6969","seeders":1,"leechers":0,"uploader":"Aainul","files":3,"time":1440146802,"description":"Seeding From High Speed Seedbox.\n\n\nSapna Jahan - Full Promo Song - Brothers - 720p HEVC - truHD HEVC \n\nSource: WEB-DL \n\nSource File Info: \nGeneral \nFormat : MPEG-4 \nFormat profile : Base Media / Version 2 \nCodec ID : mp42 \nFile size : 28.9 MiB \nDuration : 2mn 57s \nOverall bit rate mode : Variable \nOverall bit rate : 1 368 Kbps \nEncoded date : UTC 2015-07-21 10:22:53 \nTagged date : UTC 2015-07-21 10:22:53 \n\n\nVideo \nID : 1 \nFormat : AVC \nFormat/Info : Advanced Video Codec \nFormat profile : &lt;a class=&quot;__cf_email__&quot; href=&quot;/cdn-cgi/l/email-protection&quot; data-cfemail=&quot;4b03222c230b0778657a&quot;&gt;[email&amp;#160;protected]&lt;/a&gt;&lt;script data-cfhash='f9e31' type=&quot;text/javascript&quot;&gt;\n/* &lt;![CDATA[ */!function(){try{var t=&quot;currentScript&quot;in document?document.currentScript:function(){for(var t=document.getElementsByTagName(&quot;script&quot;),e=t.length;e--;)if(t[e].getAttribute(&quot;data-cfhash&quot;))return t[e]}();if(t&amp;&amp;t.previousSibling){var e,r,n,i,c=t.previousSibling,a=c.getAttribute(&quot;data-cfemail&quot;);if(a){for(e=&quot;&quot;,r=parseInt(a.substr(0,2),16),n=2;a.length-n;n+=2)i=parseInt(a.substr(n,2),16)^r,e+=String.fromCharCode(i);e=document.createTextNode(e),c.parentNode.replaceChild(e,c)}t.parentNode.removeChild(t);}}catch(u){}}()/* ]]&gt; */&lt;/script&gt; \nFormat settings, CABAC : Yes \nFormat settings, ReFrames : 1 frame \nCodec ID : avc1 \nCodec ID/Info : Advanced Video Coding \nDuration : 2mn 57s \nBit rate : 1 173 Kbps \nMaximum bit rate : 2 440 Kbps \nWidth : 1 280 pixels \nHeight : 720 pixels \nDisplay aspect ratio : 16:9 \nFrame rate mode : Constant \nFrame rate : 25.000 fps \nColor space : YUV \nChroma subsampling : 4:2:0 \nBit depth : 8 bits \nScan type : Progressive \nBits/(Pixel*Frame) : 0.051 \nStream size : 24.8 MiB (86%) \nTagged date : UTC 2015-07-21 10:22:55 \n\nAudio \nID : 2 \nFormat : AAC \nFormat/Info : Advanced Audio Codec \nFormat profile : LC \nCodec ID : 40 \nDuration : 2mn 57s \nBit rate mode : Variable \nBit rate : 192 Kbps \nMaximum bit rate : 202 Kbps \nChannel(s) : 2 channels \nChannel positions : Front: L R \nSampling rate : 44.1 KHz \nCompression mode : Lossy \nStream size : 4.05 MiB (14%) \nTitle : IsoMedia File Produced by Google, 5-11-2011 \nEncoded date : UTC 2015-07-21 10:22:54 \nTagged date : UTC 2015-07-21 10:22:55 \n\n\nEncoder: truHD HEVC Encoding Team \n\nEncoded File Info: \n\nGeneral \nFormat : MPEG-4 \nCodec ID : M4V \nFile size : 10.2 MiB \nDuration : 2mn 56s \nOverall bit rate : 483 Kbps \nEncoded date : UTC 2015-08-18 22:21:49 \nTagged date : UTC 2015-08-18 22:21:49 \n\nVideo \nID : 1 \nFormat : HEVC \nFormat/Info : High Efficiency Video Coding \nCodec ID : hvc1 \nCodec ID/Info : High Efficiency Video Coding \nDuration : 2mn 56s \nSource duration : 2mn 56s \nBit rate : 327 Kbps \nMaximum bit rate : 753 Kbps \nWidth : 1 280 pixels \nHeight : 720 pixels \nDisplay aspect ratio : 16:9 \nFrame rate mode : Constant \nFrame rate : 25.000 fps \nBits/(Pixel*Frame) : 0.014 \nStream size : 6.90 MiB (68%) \nSource stream size : 7.42 MiB (73%) \nEncoded date : UTC 2015-08-18 22:21:49 \nTagged date : UTC 2015-08-18 22:21:51 \n\nAudio \nID : 2 \nFormat : AC-3 \nFormat/Info : Audio Coding 3 \nMode extension : CM (complete main) \nFormat settings, Endianness : Big \nCodec ID : ac-3 \nDuration : 2mn 56s \nBit rate mode : Constant \nBit rate : 128 Kbps \nMaximum bit rate : 134 Kbps \nChannel(s) : 2 channels \nChannel positions : Front: L R \nSampling rate : 44.1 KHz \nBit depth : 16 bits \nCompression mode : Lossy \nStream size : 2.70 MiB (26%) \nTitle : &lt;a class=&quot;__cf_email__&quot; href=&quot;/cdn-cgi/l/email-protection&quot; data-cfemail=&quot;8deceebeaeecf8e9e4e2cdcaddcccebda3b8a3bfa0c9c8dba0ffe8fbbeb5baa0eabebcbdbfbdb4b9a0e0ecfef9e8ff&quot;&gt;[email&amp;#160;protected]&lt;/a&gt;&lt;script data-cfhash='f9e31' type=&quot;text/javascript&quot;&gt;\n/* &lt;![CDATA[ */!function(){try{var t=&quot;currentScript&quot;in document?document.currentScript:function(){for(var t=document.getElementsByTagName(&quot;script&quot;),e=t.length;e--;)if(t[e].getAttribute(&quot;data-cfhash&quot;))return t[e]}();if(t&amp;&amp;t.previousSibling){var e,r,n,i,c=t.previousSibling,a=c.getAttribute(&quot;data-cfemail&quot;);if(a){for(e=&quot;&quot;,r=parseInt(a.substr(0,2),16),n=2;a.length-n;n+=2)i=parseInt(a.substr(n,2),16)^r,e+=String.fromCharCode(i);e=document.createTextNode(e),c.parentNode.replaceChild(e,c)}t.parentNode.removeChild(t);}}catch(u){}}()/* ]]&gt; */&lt;/script&gt; \nEncoded date : UTC 2015-08-18 22:21:51 \nTagged date : UTC 2015-08-18 22:21:51 \n\nScreenShots: \n &lt;a href=&quot;\nhttps://yuq.me/users/36/459/izKVNk4b7Z.jpg&quot; rel=&quot;nofollow&quot; target=&quot;_NEW&quot;&gt;\nhttps://yuq.me/users/36/459/izKVNk4b7Z.jpg&lt;/a&gt;\n\n\n\nLike Us On FB And Request Accepted @\n\nKickAssTorrents: &lt;a href=&quot;\nhttps://kat.cr/user/Aainul/&quot; rel=&quot;nofollow&quot; target=&quot;_NEW&quot;&gt;\nhttps://kat.cr/user/Aainul/&lt;/a&gt;\nGloTorrents: &lt;a href=&quot;\nhttps://glodls.to/user/Aainul&quot; rel=&quot;nofollow&quot; target=&quot;_NEW&quot;&gt;\nhttps://glodls.to/user/Aainul&lt;/a&gt;\nThePirateBay: &lt;a href=&quot;\nhttps://thepiratebay.vg/user/Aainul/&quot; rel=&quot;nofollow&quot; target=&quot;_NEW&quot;&gt;\nhttps://thepiratebay.vg/user/Aainul/&lt;/a&gt;\n1337x Torrents: &lt;a href=&quot;\nhttp://1337.to/user/Aainul/&quot; rel=&quot;nofollow&quot; target=&quot;_NEW&quot;&gt;\nhttp://1337.to/user/Aainul/&lt;/a&gt;\n\n\nNote: All Videos Uploaded By Me Are For Review Purpose. If You Like IT, Google IT And Buy IT - Thanks\n\n\nKing Regards\ntruHD HEVC Team\n\nShare Among Friends And Relatives","torrent":{"xt":"urn:btih:f69a1c0a82991da0333695ebe0692d0bad2c43e9","amp;dn":"Sapna+Jahan+-+Full+Promo+Song+-+Brothers+-+720p+HEVC+-+truHD+HEV","amp;tr":["udp%3A%2F%2Ftracker.openbittorrent.com%3A80","udp%3A%2F%2Fopen.demonii.com%3A1337","udp%3A%2F%2Ftracker.coppersurfer.tk%3A6969","udp%3A%2F%2Fexodus.desync.com%3A6969"],"infoHash":"f69a1c0a82991da0333695ebe0692d0bad2c43e9","infoHashBuffer":{"type":"Buffer","data":[246,154,28,10,130,153,29,160,51,54,149,235,224,105,45,11,173,44,67,233]},"announce":[],"urlList":[]}}